<svg width="20" height="20" viewBox="0 0 20 20" fill="none" xmlns="http://www.w3.org/2000/svg">
<path d="M4.27391 3.48017H0.58823C0.263319 3.48017 0 3.21668 0 2.89194C0 2.56721 0.263319 2.30371 0.58823 2.30371H4.27391C4.59882 2.30371 4.86214 2.56721 4.86214 2.89194C4.86214 3.21668 4.59882 3.48017 4.27391 3.48017Z" fill="#0061DF"/>
<path d="M6.37994 5.58609C4.8942 5.58609 3.68555 4.37743 3.68555 2.89183C3.68555 1.40592 4.8942 0.197266 6.37994 0.197266C7.86567 0.197266 9.07433 1.40592 9.07433 2.89183C9.07433 4.37748 7.86567 5.58609 6.37994 5.58609ZM6.37994 1.37377C5.54293 1.37377 4.86201 2.05483 4.86201 2.89183C4.86201 3.72884 5.54293 4.40959 6.37994 4.40959C7.21694 4.40959 7.89787 3.72884 7.89787 2.89183C7.89787 2.05483 7.21694 1.37377 6.37994 1.37377Z" fill="#0061DF"/>
<path d="M19.4117 3.48017H10.62C10.2951 3.48017 10.0317 3.21668 10.0317 2.89194C10.0317 2.56721 10.2951 2.30371 10.62 2.30371H19.4116C19.7365 2.30371 19.9998 2.56721 19.9998 2.89194C19.9998 3.21668 19.7366 3.48017 19.4117 3.48017Z" fill="#0061DF"/>
<path d="M14.2779 12.6942C12.7921 12.6942 11.5835 11.4855 11.5835 9.99992C11.5835 8.51432 12.7922 7.30566 14.2779 7.30566C15.7636 7.30566 16.9723 8.51432 16.9723 9.99992C16.9723 11.4855 15.7637 12.6942 14.2779 12.6942ZM14.2779 8.48217C13.4409 8.48217 12.76 9.16291 12.76 9.99992C12.76 10.8369 13.4409 11.5177 14.2779 11.5177C15.1149 11.5177 15.7958 10.8369 15.7958 9.99992C15.7958 9.16291 15.1149 8.48217 14.2779 8.48217Z" fill="#0061DF"/>
<path d="M10.0382 10.5881H0.58823C0.263319 10.5881 0 10.3246 0 9.99985C0 9.67512 0.263319 9.41162 0.58823 9.41162H10.0382C10.3631 9.41162 10.6264 9.67512 10.6264 9.99985C10.6264 10.3246 10.3631 10.5881 10.0382 10.5881Z" fill="#0061DF"/>
<path d="M19.4117 10.5881H16.3841C16.0592 10.5881 15.7959 10.3246 15.7959 9.99985C15.7959 9.67512 16.0592 9.41162 16.3841 9.41162H19.4117C19.7366 9.41162 19.9999 9.67512 19.9999 9.99985C19.9999 10.3246 19.7366 10.5881 19.4117 10.5881Z" fill="#0061DF"/>
<path d="M5.72222 19.8029C4.23649 19.8029 3.02783 18.5942 3.02783 17.1083C3.02783 15.6227 4.23649 14.4141 5.72222 14.4141C7.20796 14.4141 8.41661 15.6227 8.41661 17.1083C8.41661 18.5942 7.20796 19.8029 5.72222 19.8029ZM5.72222 15.5906C4.88522 15.5906 4.20429 16.2713 4.20429 17.1083C4.20429 17.9453 4.88522 18.6264 5.72222 18.6264C6.55923 18.6264 7.24015 17.9453 7.24015 17.1083C7.24015 16.2713 6.55923 15.5906 5.72222 15.5906Z" fill="#0061DF"/>
<path d="M19.4117 17.6965H9.96177C9.63685 17.6965 9.37354 17.433 9.37354 17.1082C9.37354 16.7835 9.63685 16.52 9.96177 16.52H19.4117C19.7366 16.52 19.9999 16.7835 19.9999 17.1082C19.9999 17.433 19.7366 17.6965 19.4117 17.6965Z" fill="#0061DF"/>
<path d="M3.61581 17.6965H0.58823C0.263319 17.6965 0 17.433 0 17.1082C0 16.7835 0.263319 16.52 0.58823 16.52H3.61581C3.94072 16.52 4.20404 16.7835 4.20404 17.1082C4.20404 17.433 3.94072 17.6965 3.61581 17.6965Z" fill="#0061DF"/>
</svg>
