<svg width="15" height="13" viewBox="0 0 15 13" fill="none" xmlns="http://www.w3.org/2000/svg">
<path d="M13.7574 1.36523C12.1262 -0.187034 9.47106 -0.187034 7.83932 1.36488L7.50003 1.68715L7.16109 1.36503C5.52917 -0.187092 2.87443 -0.186917 1.24251 1.36503C0.44124 2.12716 0 3.13804 0 4.21119C0 5.28468 0.44124 6.2954 1.24263 7.05785L7.13771 12.6545C7.23911 12.751 7.36966 12.7991 7.5 12.7991C7.63034 12.7991 7.76071 12.7508 7.86229 12.6543L13.7574 7.05785C14.5586 6.29557 15 5.28471 15 4.21136C15 3.13804 14.5586 2.12733 13.7574 1.36523ZM13.0321 6.29469L7.5 11.547L1.96808 6.29487C1.37771 5.73348 1.05264 4.99347 1.05264 4.21136C1.05264 3.42926 1.37771 2.68925 1.96808 2.12786C2.58387 1.54189 3.39264 1.2491 4.20158 1.2491C5.0107 1.2491 5.81982 1.54224 6.43562 2.12821L7.13736 2.79471C7.34051 2.98787 7.65929 2.98787 7.86246 2.79471L8.56438 2.12786C9.79614 0.956101 11.8002 0.956101 13.0319 2.12786C13.6221 2.68928 13.9474 3.42926 13.9474 4.21136C13.9474 4.99347 13.6221 5.73331 13.0321 6.29469Z" fill="#696969"/>
</svg>
