<?xml version="1.0" standalone="no"?>
<!DOCTYPE svg PUBLIC "-//W3C//DTD SVG 20010904//EN"
 "http://www.w3.org/TR/2001/REC-SVG-20010904/DTD/svg10.dtd">
<svg version="1.0" xmlns="http://www.w3.org/2000/svg"
 width="640.000000pt" height="640.000000pt" viewBox="0 0 640.000000 640.000000"
 preserveAspectRatio="xMidYMid meet">

<g transform="translate(0.000000,640.000000) scale(0.100000,-0.100000)"
fill="#000000" stroke="none">
<path d="M1790 4505 l0 -655 680 0 680 0 0 655 0 655 -680 0 -680 0 0 -655z
m622 53 c3 -214 5 -236 24 -268 37 -63 113 -79 175 -37 50 33 57 76 58 325 l1
212 75 0 75 0 0 -225 c0 -124 -5 -247 -11 -275 -24 -111 -112 -179 -243 -188
-135 -8 -235 41 -280 138 -19 41 -21 67 -24 298 l-4 252 75 0 75 0 4 -232z"/>
<path d="M3250 4505 l0 -655 680 0 680 0 0 655 0 655 -680 0 -680 0 0 -655z
m732 279 c27 -9 50 -19 52 -23 3 -4 -4 -32 -15 -62 l-20 -55 -57 19 c-61 21
-151 19 -178 -4 -21 -17 -17 -65 7 -87 11 -11 59 -34 106 -53 103 -40 154 -75
176 -122 21 -43 22 -135 3 -180 -34 -82 -135 -123 -280 -114 -85 5 -179 28
-191 47 -3 4 5 33 16 64 l21 55 42 -17 c28 -12 69 -17 129 -17 82 0 90 2 108
24 21 26 19 64 -5 89 -7 7 -56 31 -109 52 -120 48 -150 69 -176 123 -45 93 -8
206 81 253 70 37 197 40 290 8z"/>
<path d="M1793 3523 c4 -198 8 -242 30 -333 73 -306 212 -550 431 -757 158
-150 366 -270 573 -332 92 -27 310 -68 318 -59 11 11 17 613 10 1121 l-7 587
-680 0 -680 0 5 -227z m876 -136 c54 -122 211 -530 211 -548 0 -5 -36 -9 -79
-9 l-79 0 -24 73 -25 72 -134 3 -134 3 -26 -73 -26 -73 -77 -3 c-45 -2 -76 1
-76 7 0 18 156 425 210 549 l54 122 76 0 75 0 54 -123z"/>
<path d="M2490 3238 c-23 -62 -45 -119 -48 -125 -3 -10 19 -13 92 -13 54 0 96
4 96 10 0 13 -81 223 -90 233 -3 4 -26 -43 -50 -105z"/>
<path d="M3250 2894 l0 -855 48 6 c364 48 637 179 877 420 169 168 284 354
359 578 54 162 68 254 73 495 l5 212 -681 0 -681 0 0 -856z m860 551 l0 -65
-105 0 -105 0 0 -275 0 -275 -75 0 -75 0 0 275 0 274 -102 3 -103 3 -1 50 c0
28 1 56 4 63 3 9 69 12 283 12 l279 0 0 -65z"/>
<path d="M3663 1693 c-37 -7 -73 -52 -73 -90 0 -53 16 -72 86 -104 56 -24 65
-32 62 -51 -3 -21 -8 -23 -72 -23 -62 0 -69 -2 -77 -22 -10 -28 11 -42 80 -50
93 -11 151 27 151 98 0 49 -29 83 -91 105 -91 33 -84 82 10 71 50 -6 61 1 61
38 0 24 -78 40 -137 28z"/>
<path d="M1800 1565 c0 -144 9 -173 64 -199 71 -33 157 -9 188 54 14 27 18 61
18 153 l0 117 -40 0 -40 0 0 -119 c0 -135 -8 -154 -64 -149 -45 4 -56 34 -56
161 l0 107 -35 0 -35 0 0 -125z"/>
<path d="M2140 1525 l0 -165 35 0 35 0 0 106 c0 127 0 127 91 -12 54 -82 66
-94 91 -94 l28 0 0 165 0 165 -35 0 -35 0 0 -96 0 -96 -46 63 c-71 98 -104
129 -136 129 l-28 0 0 -165z"/>
<path d="M2500 1526 l0 -166 40 0 40 0 -2 163 -3 162 -37 3 -38 3 0 -165z"/>
<path d="M2620 1682 c0 -12 96 -255 115 -292 13 -25 22 -30 50 -30 28 0 37 5
50 30 19 37 115 280 115 292 0 4 -18 8 -39 8 l-39 0 -36 -107 c-46 -138 -49
-142 -65 -95 -8 20 -27 74 -43 120 l-30 82 -39 0 c-21 0 -39 -4 -39 -8z"/>
<path d="M2990 1525 l0 -165 120 0 120 0 0 30 0 30 -80 0 -80 0 0 40 0 40 65
0 65 0 0 30 0 30 -65 0 -65 0 0 35 0 35 75 0 75 0 0 30 0 30 -115 0 -115 0 0
-165z"/>
<path d="M3287 1683 c-4 -3 -7 -78 -7 -165 l0 -158 40 0 40 0 0 60 c0 53 2 60
19 60 13 0 32 -20 56 -60 35 -57 38 -60 76 -60 21 0 39 3 39 7 0 4 -16 33 -35
65 l-35 57 25 25 c19 19 25 36 25 66 0 54 -14 79 -55 96 -35 14 -176 20 -188
7z m151 -69 c42 -29 15 -74 -44 -74 -34 0 -34 0 -34 45 0 43 2 45 28 45 15 0
38 -7 50 -16z"/>
<path d="M3880 1525 l0 -165 35 0 35 0 0 165 0 165 -35 0 -35 0 0 -165z"/>
<path d="M4000 1660 c0 -29 1 -30 50 -30 l50 0 0 -135 0 -135 40 0 40 0 0 136
0 136 48 -3 c46 -3 47 -3 47 26 l0 30 -137 3 -138 3 0 -31z"/>
<path d="M4310 1682 c0 -4 25 -51 55 -104 50 -88 55 -102 55 -157 l0 -61 40 0
40 0 0 64 c0 59 4 70 55 157 30 52 55 97 55 102 0 4 -18 7 -39 7 -38 0 -40 -2
-73 -65 -18 -36 -35 -65 -38 -65 -3 0 -20 29 -38 65 -31 64 -33 65 -72 65 -22
0 -40 -4 -40 -8z"/>
<path d="M1840 1233 c-64 -23 -46 -123 22 -123 44 0 75 59 50 96 -7 10 -47 35
-54 33 -2 0 -10 -3 -18 -6z m48 -54 c3 -30 -18 -52 -42 -43 -16 6 -23 54 -9
68 16 16 48 1 51 -25z"/>
<path d="M2098 1229 c-28 -16 -22 -47 12 -64 35 -18 30 -40 -6 -31 -17 5 -24
2 -24 -9 0 -10 10 -15 35 -15 60 0 71 57 14 75 -27 9 -23 25 6 25 28 0 34 15
9 24 -21 8 -26 7 -46 -5z"/>
<path d="M2206 1219 c-31 -24 -35 -68 -8 -92 24 -22 82 -23 82 -2 0 11 -7 14
-23 10 -31 -8 -51 16 -43 50 5 20 13 25 36 25 32 0 40 14 14 24 -24 9 -29 8
-58 -15z"/>
<path d="M2630 1233 c-41 -15 -54 -78 -22 -106 24 -22 82 -23 82 -2 0 11 -7
14 -23 10 -29 -8 -50 15 -45 47 2 18 10 24 36 26 34 3 42 16 16 26 -18 7 -23
7 -44 -1z"/>
<path d="M3522 1224 c-16 -11 -22 -25 -22 -54 0 -44 22 -64 66 -58 28 3 33 22
6 24 -41 2 -43 4 -40 36 2 24 9 34 23 36 42 7 51 14 30 22 -29 12 -38 12 -63
-6z"/>
<path d="M3897 1219 c-47 -36 -24 -109 33 -109 38 0 60 24 60 64 0 55 -50 79
-93 45z m61 -45 c4 -37 -23 -54 -46 -30 -22 22 -8 68 21 64 16 -2 23 -11 25
-34z"/>
<path d="M4132 1223 c-21 -18 -26 -32 -23 -65 3 -47 78 -66 105 -26 22 32 20
55 -9 83 -29 30 -46 31 -73 8z m56 -25 c16 -16 15 -43 -2 -57 -29 -24 -64 17
-44 53 11 19 29 21 46 4z"/>
<path d="M4264 1214 c-45 -44 -14 -104 54 -104 31 0 33 2 30 32 -4 39 -28 51
-28 14 0 -34 -27 -34 -42 -1 -14 30 3 55 38 55 27 0 32 15 8 24 -26 10 -34 7
-60 -20z"/>
<path d="M4548 1229 c-28 -16 -22 -47 12 -64 35 -18 30 -40 -6 -31 -17 5 -24
2 -24 -9 0 -10 10 -15 34 -15 60 0 74 48 21 72 -32 14 -32 28 0 28 28 0 34 15
9 24 -21 8 -26 7 -46 -5z"/>
<path d="M1940 1170 c0 -47 3 -60 15 -60 9 0 15 9 15 25 0 20 5 25 26 25 31 0
28 23 -4 28 -30 5 -28 22 3 22 14 0 25 5 25 10 0 6 -18 10 -40 10 l-40 0 0
-60z"/>
<path d="M2300 1170 c0 -47 3 -60 15 -60 12 0 15 13 15 60 0 47 -3 60 -15 60
-12 0 -15 -13 -15 -60z"/>
<path d="M2360 1170 l0 -60 41 0 c28 0 39 4 36 13 -2 6 -14 12 -27 12 -13 0
-25 6 -27 13 -3 7 5 12 21 12 16 0 26 6 26 15 0 9 -9 15 -25 15 -14 0 -25 5
-25 10 0 6 14 10 30 10 17 0 30 5 30 10 0 6 -18 10 -40 10 l-40 0 0 -60z"/>
<path d="M2460 1170 c0 -46 3 -60 14 -60 10 0 16 13 18 38 l3 37 25 -37 c37
-55 50 -49 50 22 0 47 -3 60 -15 60 -10 0 -15 -10 -15 -32 l0 -33 -26 33 c-40
50 -54 43 -54 -28z"/>
<path d="M2710 1169 l0 -60 43 3 c23 2 41 8 39 13 -2 6 -14 9 -27 7 -31 -4
-35 25 -5 30 29 4 30 22 3 26 -31 5 -29 22 2 22 14 0 25 5 25 10 0 6 -18 10
-40 10 l-40 0 0 -61z"/>
<path d="M2875 1194 c-24 -57 -29 -84 -16 -84 6 0 14 7 17 15 8 20 44 19 59
-1 6 -9 17 -15 23 -13 16 6 -29 113 -50 117 -12 2 -22 -8 -33 -34z m45 -26 c0
-5 -6 -8 -14 -8 -9 0 -12 7 -9 21 4 16 8 17 14 7 5 -7 9 -16 9 -20z"/>
<path d="M2980 1170 c0 -46 3 -60 14 -60 10 0 16 13 18 38 l3 37 25 -37 c37
-55 50 -49 50 22 0 47 -3 60 -15 60 -10 0 -15 -10 -15 -31 l0 -31 -26 31 c-40
48 -54 41 -54 -29z"/>
<path d="M3120 1170 l0 -60 33 0 c41 0 67 26 67 66 0 40 -16 54 -62 54 l-38 0
0 -60z m68 9 c3 -27 -20 -55 -38 -44 -5 3 -10 22 -10 41 0 31 3 35 23 32 15
-2 23 -11 25 -29z"/>
<path d="M3280 1220 c0 -5 7 -10 15 -10 11 0 15 -12 15 -50 0 -38 4 -50 15
-50 11 0 15 12 15 50 0 43 3 50 20 50 11 0 20 5 20 10 0 6 -22 10 -50 10 -27
0 -50 -4 -50 -10z"/>
<path d="M3394 1173 l2 -58 42 -3 c25 -2 42 1 42 7 0 6 -6 12 -12 12 -7 1 -19
2 -27 3 -27 2 -24 26 3 26 16 0 26 6 26 15 0 9 -9 15 -25 15 -14 0 -25 5 -25
10 0 6 14 10 30 10 17 0 30 5 30 10 0 6 -20 10 -44 10 l-43 0 1 -57z"/>
<path d="M3612 1173 c2 -34 8 -58 16 -61 7 -2 12 6 12 22 0 21 5 26 25 26 20
0 25 -5 25 -25 0 -16 6 -25 15 -25 12 0 15 13 15 60 0 47 -3 60 -15 60 -8 0
-15 -9 -15 -20 0 -15 -7 -20 -25 -20 -18 0 -25 5 -25 20 0 11 -7 20 -15 20
-12 0 -15 -12 -13 -57z"/>
<path d="M3740 1170 c0 -47 3 -60 15 -60 11 0 15 11 15 37 0 35 0 36 20 18 11
-10 22 -26 25 -36 4 -11 13 -19 21 -19 11 0 14 15 14 60 0 47 -3 60 -15 60
-10 0 -15 -10 -15 -31 l0 -31 -26 31 c-40 48 -54 41 -54 -29z"/>
<path d="M4020 1170 l0 -60 41 0 c46 0 51 23 6 28 -25 3 -27 7 -27 48 0 24 -4
44 -10 44 -6 0 -10 -27 -10 -60z"/>
<path d="M4370 1170 c0 -47 3 -60 15 -60 12 0 15 13 15 60 0 47 -3 60 -15 60
-12 0 -15 -13 -15 -60z"/>
<path d="M4430 1169 l0 -60 43 3 c43 3 54 24 11 22 -29 -2 -33 23 -4 28 29 4
30 22 3 26 -31 5 -29 22 2 22 14 0 25 5 25 10 0 6 -18 10 -40 10 l-40 0 0 -61z"/>
</g>
</svg>
